<?xml version="1.0" encoding="UTF-8"?>
<svg width="30px" height="30px" viewBox="0 0 30 30" version="1.1" xmlns="http://www.w3.org/2000/svg" xmlns:xlink="http://www.w3.org/1999/xlink">
    <title>defenicoes</title>
    <g id="defenicoes" stroke="none" stroke-width="1" fill="none" fill-rule="evenodd">
        <rect id="Rectangle" fill="#FFFFFF" x="0" y="0" width="30" height="30"></rect>
        <g id="iconfinder_56-light_4243301" transform="translate(1.000000, 1.000000)" stroke="#98A4A4" stroke-linecap="round" stroke-linejoin="round" stroke-width="1.5">
            <path d="M25.2,11.2 L24.836,11.2 C24.5754152,10.1872586 24.1732282,9.21635407 23.6413333,8.31600002 L23.9026667,8.05466669 C24.9306731,6.95143027 24.9003398,5.23223039 23.8340547,4.1659453 C22.7677696,3.09966021 21.0485697,3.06932693 19.9453333,4.09733335 L19.684,4.35866668 C18.7836459,3.8267718 17.8127414,3.42458479 16.8,3.16400001 L16.8,2.80000001 C16.8,1.2536027 15.5463973,0 14,0 C12.4536027,0 11.1999999,1.2536027 11.1999999,2.80000001 L11.1999999,3.16400001 C10.1872586,3.42458479 9.21635398,3.8267718 8.31599994,4.35866668 L8.05466661,4.09733335 C6.95930185,3.00454592 5.18545402,3.00663526 4.0926666,4.10200001 C2.99987917,5.19736477 3.00196851,6.9712126 4.09733326,8.06400002 L4.3586666,8.32533336 C3.82757682,9.22277508 3.4254119,10.1904844 3.16399993,11.2 L2.79999992,11.2 C1.25360265,11.2000001 3.31586611e-15,12.4536028 3.31586611e-15,14 C3.31586611e-15,15.5463973 1.25360265,16.8 2.79999992,16.8000001 L3.16399993,16.8000001 C3.42458471,17.8127414 3.82677172,18.783646 4.3586666,19.6840001 L4.09733326,19.9453334 C3.06932685,21.0485698 3.09966012,22.7677697 4.16594521,23.8340548 C5.2322303,24.9003399 6.95143019,24.9306732 8.05466661,23.9026667 L8.31599994,23.6413334 C9.21635398,24.1732283 10.1872586,24.5754153 11.1999999,24.8360001 L11.1999999,25.2000001 C11.2,26.7463973 12.4536027,28 14,28 C15.5463972,28 16.7999999,26.7463973 16.8,25.2000001 L16.8,24.8360001 C17.8127414,24.5754153 18.7836459,24.1732283 19.684,23.6413334 L19.9453333,23.9026667 C21.0485697,24.9306732 22.7677696,24.9003399 23.8340547,23.8340548 C24.9003398,22.7677697 24.9306731,21.0485698 23.9026667,19.9453334 L23.6413333,19.6840001 C24.1732282,18.783646 24.5754152,17.8127414 24.836,16.8000001 L25.2,16.8000001 C26.7463973,16.8000001 28,15.5463973 28,14 C28,12.4536027 26.7463973,11.2 25.2,11.2 Z" id="Path"></path>
            <circle id="Oval" cx="14" cy="14" r="7.46666669"></circle>
        </g>
    </g>
</svg>