<?xml version="1.0" encoding="UTF-8"?>
<svg width="49px" height="49px" viewBox="0 0 49 49" version="1.1" xmlns="http://www.w3.org/2000/svg" xmlns:xlink="http://www.w3.org/1999/xlink">
    <title>Group 11</title>
    <g id="Symbols" stroke="none" stroke-width="1" fill="none" fill-rule="evenodd">
        <g id="Group-11">
            <circle id="Oval" fill="#005ED4" cx="24.5" cy="24.5" r="24.5"></circle>
            <g id="iconfinder_Computers_and_Hardware_smart_phone_iphone_secure_6588853-(1)" transform="translate(17.000000, 11.000000)" stroke="#FFFFFF" stroke-linecap="round" stroke-linejoin="round" stroke-width="1.5">
                <line x1="4" y1="22" x2="10" y2="22" id="Path"></line>
                <path d="M10,0 L10,1.3 C10,2.2 9.2,3 8.3,3 L5.7,3 C4.8,3 4,2.2 4,1.3 L4,0" id="Path"></path>
                <path d="M14,4 L14,2 C14,0.9 13.1,0 12,0 L2,0 C0.9,0 0,0.9 0,2 L0,24 C0,25.1 0.9,26 2,26 L12,26 C13.1,26 14,25.1 14,24 L14,22" id="Path"></path>
                <path d="M11,8.8 L11,11.6 C11,14.8 13.2,17.5 16,18 C18.8,17.5 21,14.9 21,11.6 L21,8.8 L16,7 L11,8.8 Z" id="Path"></path>
            </g>
        </g>
    </g>
</svg>