<?xml version="1.0" encoding="UTF-8"?>
<svg width="30px" height="30px" viewBox="0 0 30 30" version="1.1" xmlns="http://www.w3.org/2000/svg" xmlns:xlink="http://www.w3.org/1999/xlink">
    <title>utilizadores</title>
    <g id="utilizadores" stroke="none" stroke-width="1" fill="none" fill-rule="evenodd">
        <rect id="Rectangle" fill="#FFFFFF" x="0" y="0" width="30" height="30"></rect>
        <g id="Group-4" transform="translate(1.000000, 3.000000)" stroke="#AC9EE4" stroke-linecap="round" stroke-linejoin="round" stroke-width="1.5">
            <circle id="Oval" cx="14" cy="9.00039304" r="5"></circle>
            <path d="M21,24.000393 C21,20.1343998 17.8659932,17.000393 14,17.000393 C10.1340068,17.000393 7,20.1343998 7,24.000393 L21,24.000393 Z" id="Path"></path>
            <path d="M24,20.000393 L28,20.000393 C28,16.8293743 25.8914914,14.150824 23,13.2902732" id="Path"></path>
            <path d="M9.99988713,0.999604376 C8.56419544,-0.0769865869 6.61838374,-0.323291374 4.9201885,0.453483745 C2.78195689,1.43153684 1.61408917,3.76727227 2.11458566,6.06468941 C2.46474183,7.67200293 3.56530587,8.95669519 5.00006725,9.5834658" id="Path"></path>
            <path d="M25.9998871,0.999604376 C24.5641954,-0.0769865869 22.6183837,-0.323291374 20.9201885,0.453483745 C18.7819569,1.43153684 17.6140892,3.76727227 18.1145857,6.06468941 C18.4647418,7.67200293 19.5653059,8.95669519 21.0000672,9.5834658" id="Path" transform="translate(21.999695, 4.791733) scale(-1, 1) translate(-21.999695, -4.791733) "></path>
            <path d="M4.9994947,13.2904221 C2.10826541,14.151133 0,16.8295571 0,20.000393 L4,20.000393" id="Path"></path>
        </g>
    </g>
</svg>